# Blender v2.79 (sub 0) OBJ File: ''
# www.blender.org
o cube2
v -3.000000 -3.000000 3.000000
v -3.000000 -1.000000 3.000000
v -3.000000 -3.000000 1.000000
v -3.000000 -1.000000 1.000000
v -1.000000 -3.000000 3.000000
v -1.000000 -1.000000 3.000000
v -1.000000 -3.000000 1.000000
v -1.000000 -1.000000 1.000000
vt 0.666486 0.333514
vt 0.333514 0.666486
vt 0.666486 0.666486
vt 0.333153 0.000180
vt 0.000180 0.333153
vt 0.333153 0.333153
vt 0.666847 0.000180
vt 0.999820 0.333153
vt 0.666847 0.333153
vt 0.333514 0.000180
vt 0.666486 0.333153
vt 0.333514 0.333153
vt 0.333153 0.666126
vt 0.333153 0.666486
vt 0.000180 0.999459
vt 0.000180 0.666486
vt 0.333514 0.333514
vt 0.000180 0.000180
vt 0.999820 0.000180
vt 0.666486 0.000180
vt 0.000180 0.666126
vt 0.333153 0.999459
vn -1.0000 0.0000 0.0000
vn 0.0000 0.0000 -1.0000
vn 1.0000 0.0000 0.0000
vn 0.0000 0.0000 1.0000
vn 0.0000 -1.0000 0.0000
vn 0.0000 1.0000 0.0000
s off
f 2/1/1 3/2/1 1/3/1
f 4/4/2 7/5/2 3/6/2
f 8/7/3 5/8/3 7/9/3
f 6/10/4 1/11/4 5/12/4
f 7/5/5 1/13/5 3/6/5
f 4/14/6 6/15/6 8/16/6
f 2/1/1 4/17/1 3/2/1
f 4/4/2 8/18/2 7/5/2
f 8/7/3 6/19/3 5/8/3
f 6/10/4 2/20/4 1/11/4
f 7/5/5 5/21/5 1/13/5
f 4/14/6 2/22/6 6/15/6
o cube3
v 1.000000 1.000000 -1.000000
v 1.000000 3.000000 -1.000000
v 1.000000 1.000000 -3.000000
v 1.000000 3.000000 -3.000000
v 3.000000 1.000000 -1.000000
v 3.000000 3.000000 -1.000000
v 3.000000 1.000000 -3.000000
v 3.000000 3.000000 -3.000000
vt 0.666486 0.333514
vt 0.333514 0.666486
vt 0.666486 0.666486
vt 0.333153 0.000180
vt 0.000180 0.333153
vt 0.333153 0.333153
vt 0.666847 0.000180
vt 0.999820 0.333153
vt 0.666847 0.333153
vt 0.333514 0.000180
vt 0.666486 0.333153
vt 0.333514 0.333153
vt 0.333153 0.666126
vt 0.333153 0.666486
vt 0.000180 0.999459
vt 0.000180 0.666486
vt 0.333514 0.333514
vt 0.000180 0.000180
vt 0.999820 0.000180
vt 0.666486 0.000180
vt 0.000180 0.666126
vt 0.333153 0.999459
vn -1.0000 0.0000 0.0000
vn 0.0000 0.0000 -1.0000
vn 1.0000 0.0000 0.0000
vn 0.0000 0.0000 1.0000
vn 0.0000 -1.0000 0.0000
vn 0.0000 1.0000 0.0000
s off
f 10/23/7 11/24/7 9/25/7
f 12/26/8 15/27/8 11/28/8
f 16/29/9 13/30/9 15/31/9
f 14/32/10 9/33/10 13/34/10
f 15/27/11 9/35/11 11/28/11
f 12/36/12 14/37/12 16/38/12
f 10/23/7 12/39/7 11/24/7
f 12/26/8 16/40/8 15/27/8
f 16/29/9 14/41/9 13/30/9
f 14/32/10 10/42/10 9/33/10
f 15/27/11 13/43/11 9/35/11
f 12/36/12 10/44/12 14/37/12
o cube
v 1.000000 -1.000000 -1.000000
v 1.000000 -1.000000 1.000000
v -1.000000 -1.000000 1.000000
v -1.000000 -1.000000 -1.000000
v 1.000000 1.000000 -0.999999
v 0.999999 1.000000 1.000001
v -1.000000 1.000000 1.000000
v -1.000000 1.000000 -1.000000
vt 0.999800 0.333134
vt 0.666866 0.000200
vt 0.666866 0.333133
vt 0.000200 0.000200
vt 0.333134 0.333134
vt 0.000200 0.333134
vt 0.333533 0.333533
vt 0.666467 0.666467
vt 0.333533 0.666467
vt 0.333533 0.000200
vt 0.666467 0.333134
vt 0.333533 0.333134
vt 0.333134 0.666866
vt 0.000200 0.999800
vt 0.333134 0.999800
vt 0.333134 0.666467
vt 0.000200 0.333533
vt 0.000200 0.666467
vt 0.999800 0.000200
vt 0.333134 0.000200
vt 0.666467 0.333533
vt 0.666467 0.000200
vt 0.000200 0.666866
vt 0.333134 0.333533
vn 0.0000 -1.0000 0.0000
vn 0.0000 1.0000 0.0000
vn 1.0000 -0.0000 0.0000
vn 0.0000 -0.0000 1.0000
vn -1.0000 -0.0000 -0.0000
vn 0.0000 0.0000 -1.0000
s off
f 18/45/13 20/46/13 17/47/13
f 24/48/14 22/49/14 21/50/14
f 21/51/15 18/52/15 17/53/15
f 22/54/16 19/55/16 18/56/16
f 19/57/17 24/58/17 20/59/17
f 17/60/18 24/61/18 21/62/18
f 18/45/13 19/63/13 20/46/13
f 24/48/14 23/64/14 22/49/14
f 21/51/15 22/65/15 18/52/15
f 22/54/16 23/66/16 19/55/16
f 19/57/17 23/67/17 24/58/17
f 17/60/18 20/68/18 24/61/18
