# Blender v2.79 (sub 0) OBJ File: 's.blend'
# www.blender.org
o Cone
v -1.000000 0.000000 -1.000000
v -1.000000 -0.195090 -0.980785
v -1.000000 -0.382683 -0.923880
v -1.000000 -0.555570 -0.831470
v -1.000000 -0.707107 -0.707107
v -1.000000 -0.831470 -0.555570
v -1.000000 -0.923879 -0.382683
v -1.000000 -0.980785 -0.195090
v -1.000000 -1.000000 -0.000000
v -1.000000 -0.980785 0.195090
v -1.000000 -0.923880 0.382683
v -1.000000 -0.831470 0.555570
v -1.000000 -0.707107 0.707107
v -1.000000 -0.555570 0.831470
v -1.000000 -0.382683 0.923880
v -1.000000 -0.195090 0.980785
v -1.000000 0.000000 1.000000
v -1.000000 0.195091 0.980785
v -1.000000 0.382684 0.923879
v -1.000000 0.555571 0.831469
v -1.000000 0.707107 0.707106
v -1.000000 0.831470 0.555570
v -1.000000 0.923880 0.382683
v 1.000000 -0.000000 0.000000
v -1.000000 0.980785 0.195089
v -1.000000 1.000000 -0.000001
v -1.000000 0.980785 -0.195091
v -1.000000 0.923879 -0.382684
v -1.000000 0.831469 -0.555571
v -1.000000 0.707106 -0.707108
v -1.000000 0.555569 -0.831470
v -1.000000 0.382682 -0.923880
v -1.000000 0.195089 -0.980786
vt 0.999866 0.177242
vt 0.498928 0.177242
vt 0.999866 0.226106
vt 0.999866 0.273093
vt 0.999866 0.316395
vt 0.999866 0.354351
vt 0.999866 0.316395
vt 0.999866 0.273093
vt 0.999866 0.226106
vt 0.999866 0.177242
vt 0.999866 0.128378
vt 0.999866 0.081392
vt 0.999866 0.038089
vt 0.999866 0.000134
vt 0.501072 0.853145
vt 0.000134 0.676036
vt 0.501072 0.815189
vt 0.501072 0.771887
vt 0.501072 0.724900
vt 0.501072 0.676036
vt 0.501072 0.627172
vt 0.501072 0.580186
vt 0.501072 0.536883
vt 0.501072 0.498928
vt 0.501072 0.536883
vt 0.501072 0.580186
vt 0.501072 0.627172
vt 0.501072 0.676037
vt 0.501072 0.724901
vt 0.501072 0.771887
vt 0.501072 0.815190
vt 0.501072 0.853145
vt 0.999866 0.000134
vt 0.999866 0.038090
vt 0.999866 0.081392
vt 0.999866 0.128379
vt 0.009713 0.322104
vt 0.322104 0.489081
vt 0.489081 0.176690
vt 0.176689 0.009713
vt 0.131327 0.028503
vt 0.090501 0.055782
vt 0.055782 0.090501
vt 0.028503 0.131327
vt 0.009713 0.176690
vt 0.000134 0.224847
vt 0.000134 0.273947
vt 0.028503 0.367467
vt 0.055782 0.408293
vt 0.090501 0.443012
vt 0.131327 0.470291
vt 0.176689 0.489081
vt 0.224847 0.498660
vt 0.273947 0.498660
vt 0.367467 0.470291
vt 0.408293 0.443012
vt 0.443012 0.408293
vt 0.470291 0.367467
vt 0.489081 0.322104
vt 0.498660 0.273947
vt 0.498660 0.224847
vt 0.470291 0.131327
vt 0.443012 0.090501
vt 0.408293 0.055782
vt 0.367467 0.028503
vt 0.322104 0.009713
vt 0.273947 0.000134
vt 0.224846 0.000134
vn 0.4455 -0.0878 -0.8910
vn 0.4455 -0.2599 -0.8567
vn 0.4455 -0.4220 -0.7896
vn 0.4455 -0.5680 -0.6921
vn 0.4455 -0.6921 -0.5680
vn 0.4455 -0.7896 -0.4220
vn 0.4455 -0.8567 -0.2599
vn 0.4455 -0.8910 -0.0878
vn 0.4455 -0.8910 0.0878
vn 0.4455 -0.8567 0.2599
vn 0.4455 -0.7896 0.4220
vn 0.4455 -0.6921 0.5680
vn 0.4455 -0.5680 0.6921
vn 0.4455 -0.4220 0.7896
vn 0.4455 -0.2599 0.8567
vn 0.4455 -0.0878 0.8910
vn 0.4455 0.0878 0.8910
vn 0.4455 0.2599 0.8567
vn 0.4455 0.4220 0.7896
vn 0.4455 0.5680 0.6921
vn 0.4455 0.6921 0.5680
vn 0.4455 0.7896 0.4220
vn 0.4455 0.8567 0.2599
vn 0.4455 0.8910 0.0878
vn 0.4455 0.8910 -0.0878
vn 0.4455 0.8567 -0.2599
vn 0.4455 0.7896 -0.4220
vn 0.4455 0.6921 -0.5680
vn 0.4455 0.5680 -0.6921
vn 0.4455 0.4220 -0.7896
vn 0.4455 0.2599 -0.8567
vn 0.4455 0.0878 -0.8910
vn -1.0000 0.0000 -0.0000
s off
f 1/1/1 24/2/1 2/3/1
f 2/3/2 24/2/2 3/4/2
f 3/4/3 24/2/3 4/5/3
f 4/5/4 24/2/4 5/6/4
f 5/6/5 24/2/5 6/7/5
f 6/7/6 24/2/6 7/8/6
f 7/8/7 24/2/7 8/9/7
f 8/9/8 24/2/8 9/10/8
f 9/10/9 24/2/9 10/11/9
f 10/11/10 24/2/10 11/12/10
f 11/12/11 24/2/11 12/13/11
f 12/13/12 24/2/12 13/14/12
f 13/15/13 24/16/13 14/17/13
f 14/17/14 24/16/14 15/18/14
f 15/18/15 24/16/15 16/19/15
f 16/19/16 24/16/16 17/20/16
f 17/20/17 24/16/17 18/21/17
f 18/21/18 24/16/18 19/22/18
f 19/22/19 24/16/19 20/23/19
f 20/23/20 24/16/20 21/24/20
f 21/24/21 24/16/21 22/25/21
f 22/25/22 24/16/22 23/26/22
f 23/26/23 24/16/23 25/27/23
f 25/27/24 24/16/24 26/28/24
f 26/28/25 24/16/25 27/29/25
f 27/29/26 24/16/26 28/30/26
f 28/30/27 24/16/27 29/31/27
f 29/31/28 24/16/28 30/32/28
f 30/33/29 24/2/29 31/34/29
f 31/34/30 24/2/30 32/35/30
f 32/35/31 24/2/31 33/36/31
f 33/36/32 24/2/32 1/1/32
f 8/37/33 16/38/33 25/39/33
f 33/40/33 1/41/33 2/42/33
f 2/42/33 3/43/33 4/44/33
f 4/44/33 5/45/33 6/46/33
f 6/46/33 7/47/33 4/44/33
f 7/47/33 8/37/33 4/44/33
f 8/37/33 9/48/33 10/49/33
f 10/49/33 11/50/33 8/37/33
f 11/50/33 12/51/33 8/37/33
f 12/51/33 13/52/33 16/38/33
f 13/52/33 14/53/33 16/38/33
f 14/53/33 15/54/33 16/38/33
f 16/38/33 17/55/33 18/56/33
f 18/56/33 19/57/33 20/58/33
f 20/58/33 21/59/33 22/60/33
f 22/60/33 23/61/33 25/39/33
f 25/39/33 26/62/33 27/63/33
f 27/63/33 28/64/33 29/65/33
f 29/65/33 30/66/33 33/40/33
f 30/66/33 31/67/33 33/40/33
f 31/67/33 32/68/33 33/40/33
f 33/40/33 2/42/33 4/44/33
f 16/38/33 18/56/33 25/39/33
f 18/56/33 20/58/33 25/39/33
f 20/58/33 22/60/33 25/39/33
f 25/39/33 27/63/33 33/40/33
f 27/63/33 29/65/33 33/40/33
f 33/40/33 4/44/33 8/37/33
f 8/37/33 12/51/33 16/38/33
f 33/40/33 8/37/33 25/39/33
