# Blender v2.79 (sub 0) OBJ File: 'vehicle new.blend'
# www.blender.org
o Back_Side_Window_2
v -0.744860 0.115631 0.788546
v -0.786728 0.164939 0.786921
v -0.757523 0.117311 0.788491
v -0.768770 0.122237 0.788328
v -0.777833 0.130073 0.788070
v -0.784095 0.140285 0.787733
v -0.787129 0.152177 0.787341
v -0.066843 0.164945 0.786920
v -0.124937 0.115631 0.788546
v -0.070642 0.152182 0.787341
v -0.077589 0.140288 0.787733
v -0.087211 0.130075 0.788070
v -0.098852 0.122238 0.788328
v -0.111720 0.117312 0.788491
v -0.694887 0.575654 0.773380
v -0.753020 0.526347 0.775005
v -0.708106 0.573974 0.773435
v -0.720977 0.569048 0.773598
v -0.732625 0.561212 0.773856
v -0.742255 0.551000 0.774193
v -0.749211 0.539108 0.774585
v -0.075331 0.575654 0.773380
v -0.033424 0.526340 0.775006
v -0.062665 0.573974 0.773435
v -0.051415 0.569047 0.773598
v -0.042346 0.561211 0.773856
v -0.036076 0.550997 0.774193
v -0.033033 0.539104 0.774585
vt 0.019237 0.072344
vt 0.065490 0.045303
vt 0.000078 0.122379
vt 0.544935 0.000610
vt 0.610347 0.056122
vt 0.561865 0.000078
vt 0.608118 0.039331
vt 0.577641 0.004100
vt 0.601584 0.024419
vt 0.591188 0.012403
vt 0.610347 0.878068
vt 0.608118 0.895592
vt 0.601582 0.912653
vt 0.591186 0.928089
vt 0.577637 0.940847
vt 0.544927 0.955094
vt 0.561859 0.950058
vt 0.065498 0.999403
vt 0.000078 0.943841
vt 0.048566 0.999922
vt 0.032788 0.995887
vt 0.002307 0.960633
vt 0.019239 0.987575
vt 0.008843 0.975550
vt 0.002307 0.104854
vt 0.008842 0.087788
vt 0.032784 0.059576
vt 0.048560 0.050352
vn 0.0000 0.0330 0.9995
vn 0.0000 0.0329 0.9995
vn -0.0001 0.0330 0.9995
vn 0.0001 0.0330 0.9995
s off
f 19/1/1 16/2/1 15/3/1
f 16/2/1 2/4/1 1/5/1
f 2/4/1 7/6/1 3/7/1
f 7/6/2 6/8/2 4/9/2
f 6/8/3 5/10/3 4/9/3
f 4/9/2 3/7/2 7/6/2
f 3/7/1 1/5/1 2/4/1
f 1/5/1 9/11/1 15/3/1
f 9/11/1 14/12/1 13/13/1
f 13/13/1 12/14/1 9/11/1
f 12/14/1 11/15/1 8/16/1
f 9/11/1 12/14/1 8/16/1
f 11/15/4 10/17/4 8/16/4
f 8/16/1 23/18/1 22/19/1
f 23/18/1 28/20/1 22/19/1
f 28/20/2 27/21/2 24/22/2
f 27/21/2 26/23/2 25/24/2
f 24/22/1 27/21/1 25/24/1
f 24/22/1 22/19/1 28/20/1
f 22/19/1 15/3/1 9/11/1
f 15/3/1 17/25/1 18/26/1
f 18/26/2 19/1/2 15/3/2
f 19/1/1 20/27/1 16/2/1
f 20/27/1 21/28/1 16/2/1
f 1/5/1 15/3/1 16/2/1
f 9/11/1 8/16/1 22/19/1
