# Blender v2.79 (sub 0) OBJ File: 'vehicle new.blend'
# www.blender.org
o Back_Window_1
v -2.145196 0.109999 0.379920
v -2.141194 0.159839 0.429920
v -2.145060 0.111698 0.392861
v -2.144660 0.116677 0.404920
v -2.144024 0.124597 0.415275
v -2.143195 0.134919 0.423221
v -2.142230 0.146940 0.428216
v -2.141194 0.159839 -0.429769
v -2.145196 0.109999 -0.379727
v -2.142230 0.146940 -0.428054
v -2.143195 0.134919 -0.423049
v -2.144024 0.124597 -0.415095
v -2.144660 0.116677 -0.404733
v -2.145060 0.111698 -0.392669
v -2.108388 0.568415 0.379920
v -2.112390 0.518575 0.429920
v -2.108524 0.566717 0.392861
v -2.108924 0.561738 0.404920
v -2.109560 0.553817 0.415275
v -2.110389 0.543495 0.423221
v -2.111354 0.531475 0.428216
v -2.108387 0.568415 -0.380112
v -2.112390 0.518575 -0.430070
v -2.108524 0.566717 -0.393052
v -2.108924 0.561738 -0.405107
v -2.109560 0.553817 -0.415455
v -2.110389 0.543495 -0.423393
v -2.111354 0.531475 -0.428377
vt 0.848882 0.889422
vt 0.820282 0.907020
vt 0.781213 0.913461
vt 0.218787 0.913461
vt 0.140649 0.865383
vt 0.198564 0.911823
vt 0.143311 0.877827
vt 0.179718 0.907020
vt 0.163535 0.899379
vt 0.151117 0.889422
vt 0.140649 0.134947
vt 0.859351 0.865383
vt 0.143312 0.122502
vt 0.151118 0.110903
vt 0.163535 0.100939
vt 0.179718 0.093290
vt 0.198564 0.088478
vt 0.218787 0.086829
vt 0.781213 0.086539
vt 0.859351 0.134576
vt 0.801436 0.088167
vt 0.820282 0.092960
vt 0.836465 0.100592
vt 0.848882 0.110543
vt 0.856688 0.122135
vt 0.856689 0.877827
vt 0.836465 0.899379
vt 0.801436 0.911823
vn 0.9968 -0.0801 -0.0000
vn 0.9968 -0.0800 -0.0000
vn 0.9968 -0.0799 0.0000
vn 0.9968 -0.0802 -0.0000
vn 0.9968 -0.0800 0.0001
vn 0.9968 -0.0801 0.0001
s off
f 18/1/1 20/2/1 16/3/1
f 16/3/2 2/4/2 1/5/2
f 2/4/1 7/6/1 3/7/1
f 7/6/1 6/8/1 5/9/1
f 5/9/3 4/10/3 3/7/3
f 3/7/2 1/5/2 2/4/2
f 1/5/2 9/11/2 15/12/2
f 16/3/2 1/5/2 15/12/2
f 9/11/4 14/13/4 13/14/4
f 13/14/3 12/15/3 9/11/3
f 12/15/1 11/16/1 9/11/1
f 11/16/5 10/17/5 8/18/5
f 8/18/2 23/19/2 22/20/2
f 23/19/1 28/21/1 22/20/1
f 28/21/2 27/22/2 26/23/2
f 26/23/2 25/24/2 28/21/2
f 25/24/2 24/25/2 28/21/2
f 24/25/2 22/20/2 28/21/2
f 22/20/2 15/12/2 9/11/2
f 15/12/3 17/26/3 18/1/3
f 18/1/2 19/27/2 20/2/2
f 20/2/6 21/28/6 16/3/6
f 7/6/2 5/9/2 3/7/2
f 11/16/1 8/18/1 9/11/1
f 9/11/2 8/18/2 22/20/2
f 15/12/1 18/1/1 16/3/1
