# Blender v2.79 (sub 0) OBJ File: 'vehicle new.blend'
# www.blender.org
o Back_Side_Window_4
v -1.721674 0.119531 -0.799681
v -1.763542 0.168842 -0.798162
v -1.734338 0.121211 -0.799630
v -1.745585 0.126137 -0.799478
v -1.754648 0.133974 -0.799236
v -1.760910 0.144186 -0.798922
v -1.763943 0.156079 -0.798555
v -1.043658 0.168848 -0.798162
v -1.101751 0.119531 -0.799681
v -1.047456 0.156084 -0.798555
v -1.054403 0.144189 -0.798922
v -1.064026 0.133975 -0.799236
v -1.075667 0.126138 -0.799478
v -1.088535 0.121211 -0.799630
v -1.671702 0.579585 -0.785504
v -1.729834 0.530274 -0.787024
v -1.684920 0.577905 -0.785556
v -1.697792 0.572979 -0.785708
v -1.709439 0.565142 -0.785949
v -1.719069 0.554930 -0.786264
v -1.726026 0.543037 -0.786630
v -1.052145 0.579585 -0.785504
v -1.010239 0.530268 -0.787024
v -1.039480 0.577905 -0.785556
v -1.028230 0.572978 -0.785708
v -1.019161 0.565140 -0.785949
v -1.012891 0.554927 -0.786264
v -1.009848 0.543032 -0.786630
vt 0.163133 0.154699
vt 0.217617 0.132866
vt 0.140565 0.195099
vt 0.782383 0.096779
vt 0.859435 0.141601
vt 0.802325 0.096350
vt 0.856809 0.128044
vt 0.820909 0.099598
vt 0.849112 0.116004
vt 0.836867 0.106301
vt 0.859435 0.805262
vt 0.856809 0.819412
vt 0.849111 0.833187
vt 0.836864 0.845650
vt 0.820904 0.855951
vt 0.782373 0.867455
vt 0.802318 0.863388
vt 0.217627 0.903231
vt 0.140565 0.858369
vt 0.197682 0.903650
vt 0.179096 0.900392
vt 0.143191 0.871927
vt 0.163136 0.893680
vt 0.150889 0.883972
vt 0.143191 0.180948
vt 0.150888 0.167169
vt 0.179091 0.144390
vt 0.197675 0.136943
vn 0.0000 -0.0308 0.9995
vn 0.0001 -0.0308 0.9995
s off
f 19/1/1 16/2/1 15/3/1
f 16/2/1 2/4/1 1/5/1
f 2/4/1 7/6/1 3/7/1
f 7/6/1 6/8/1 4/9/1
f 6/8/1 5/10/1 4/9/1
f 4/9/1 3/7/1 7/6/1
f 3/7/1 1/5/1 2/4/1
f 1/5/1 9/11/1 15/3/1
f 9/11/1 14/12/1 13/13/1
f 13/13/1 12/14/1 9/11/1
f 12/14/1 11/15/1 8/16/1
f 9/11/1 12/14/1 8/16/1
f 11/15/1 10/17/1 8/16/1
f 8/16/1 23/18/1 22/19/1
f 23/18/1 28/20/1 22/19/1
f 28/20/1 27/21/1 24/22/1
f 27/21/1 26/23/1 25/24/1
f 24/22/1 27/21/1 25/24/1
f 24/22/1 22/19/1 28/20/1
f 22/19/1 15/3/1 9/11/1
f 15/3/1 17/25/1 18/26/1
f 18/26/1 19/1/1 15/3/1
f 19/1/1 20/27/1 16/2/1
f 20/27/2 21/28/2 16/2/2
f 1/5/1 15/3/1 16/2/1
f 9/11/1 8/16/1 22/19/1
