# Blender v2.79 (sub 0) OBJ File: 'vehicle new.blend'
# www.blender.org
o Front_Window_1
v 1.887000 0.174050 0.671539
v 1.866658 0.219724 0.721539
v 1.886307 0.175606 0.684480
v 1.884275 0.180169 0.696539
v 1.881042 0.187427 0.706894
v 1.876829 0.196887 0.714840
v 1.871923 0.207903 0.719835
v 1.866658 0.219725 -0.721539
v 1.887000 0.174050 -0.671539
v 1.871923 0.207903 -0.719835
v 1.876829 0.196887 -0.714840
v 1.881042 0.187427 -0.706894
v 1.884275 0.180169 -0.696539
v 1.886307 0.175606 -0.684480
v 1.700011 0.593903 0.671539
v 1.720353 0.548228 0.721539
v 1.700704 0.592347 0.684480
v 1.702736 0.587784 0.696539
v 1.705969 0.580525 0.706894
v 1.710182 0.571066 0.714840
v 1.715088 0.560050 0.719835
v 1.700011 0.593903 -0.671539
v 1.720353 0.548228 -0.721539
v 1.700704 0.592347 -0.684480
v 1.702736 0.587784 -0.696539
v 1.705969 0.580525 -0.706894
v 1.710182 0.571066 -0.714840
v 1.715088 0.560050 -0.719835
vt 0.318514 0.965299
vt 0.283870 0.999944
vt 0.000056 0.965299
vt 0.034701 0.000056
vt 0.283870 0.000056
vt 0.318514 0.034701
vt 0.292836 0.001237
vt 0.317334 0.025734
vt 0.301192 0.004698
vt 0.308367 0.010203
vt 0.313873 0.017379
vt 0.000057 0.034701
vt 0.004698 0.017379
vt 0.317334 0.974266
vt 0.313873 0.982621
vt 0.308367 0.989797
vt 0.301192 0.995302
vt 0.292836 0.998763
vt 0.034701 0.999944
vt 0.025734 0.998763
vt 0.017379 0.995302
vt 0.001237 0.974266
vt 0.010203 0.989797
vt 0.004698 0.982621
vt 0.001237 0.025734
vt 0.010204 0.010203
vt 0.017379 0.004698
vt 0.025734 0.001237
vn 0.9135 0.4068 0.0000
vn 0.9135 0.4069 -0.0000
s off
f 9/1/1 8/2/1 22/3/1
f 16/4/1 2/5/1 1/6/1
f 2/5/2 7/7/2 3/8/2
f 7/7/2 6/9/2 5/10/2
f 5/10/2 4/11/2 3/8/2
f 3/8/2 1/6/2 2/5/2
f 1/6/1 9/1/1 15/12/1
f 16/4/1 15/12/1 18/13/1
f 9/1/2 14/14/2 13/15/2
f 13/15/2 12/16/2 9/1/2
f 12/16/1 11/17/1 9/1/1
f 11/17/1 10/18/1 8/2/1
f 8/2/1 23/19/1 22/3/1
f 23/19/1 28/20/1 22/3/1
f 28/20/1 27/21/1 24/22/1
f 27/21/1 26/23/1 24/22/1
f 26/23/2 25/24/2 24/22/2
f 24/22/2 22/3/2 28/20/2
f 22/3/1 15/12/1 9/1/1
f 15/12/1 17/25/1 18/13/1
f 18/13/1 19/26/1 16/4/1
f 19/26/1 20/27/1 16/4/1
f 20/27/2 21/28/2 16/4/2
f 7/7/1 5/10/1 3/8/1
f 15/12/1 16/4/1 1/6/1
f 11/17/1 8/2/1 9/1/1
