# Blender v2.79 (sub 0) OBJ File: 'vehicle new.blend'
# www.blender.org
o Front_Side_Window_3
v 1.044233 0.084636 0.783726
v 0.994233 0.134624 0.782655
v 1.031292 0.086339 0.783689
v 1.019233 0.091333 0.783583
v 1.008878 0.099277 0.783412
v 1.000932 0.109630 0.783191
v 0.995937 0.121686 0.782932
v 1.744896 0.130375 0.782746
v 1.724598 0.084636 0.783726
v 1.745767 0.118537 0.783000
v 1.745638 0.107505 0.783236
v 1.745046 0.098032 0.783439
v 1.743719 0.090764 0.783595
v 1.736852 0.086194 0.783693
v 1.044233 0.584595 0.773019
v 0.994233 0.534605 0.774090
v 1.031292 0.582892 0.773055
v 1.019233 0.577897 0.773162
v 1.008878 0.569953 0.773332
v 1.000932 0.559600 0.773554
v 0.995937 0.547543 0.773812
v 1.504076 0.584612 0.773019
v 1.574250 0.538874 0.773998
v 1.517705 0.583053 0.773052
v 1.531779 0.578485 0.773150
v 1.545341 0.571216 0.773305
v 1.557465 0.561743 0.773508
v 1.567325 0.550712 0.773745
vt 0.000103 0.066602
vt 0.008998 0.033342
vt 0.066493 0.000082
vt 0.597689 0.000081
vt 0.664077 0.066601
vt 0.614871 0.002348
vt 0.661815 0.049385
vt 0.630883 0.008993
vt 0.644632 0.019564
vt 0.655182 0.033341
vt 0.664077 0.971755
vt 0.060823 0.771734
vt 0.000081 0.678375
vt 0.017871 0.733273
vt 0.662007 0.988058
vt 0.646285 0.998959
vt 0.655939 0.997194
vt 0.633705 0.999746
vt 0.619055 0.999919
vt 0.603333 0.998760
vt 0.045102 0.762520
vt 0.030452 0.749402
vt 0.008219 0.715231
vt 0.002151 0.696506
vt 0.002366 0.049385
vt 0.019549 0.019565
vt 0.033299 0.008993
vt 0.049310 0.002348
vn 0.0000 0.0214 0.9998
s off
f 15/1/1 18/2/1 16/3/1
f 16/3/1 2/4/1 1/5/1
f 2/4/1 7/6/1 3/7/1
f 7/6/1 6/8/1 5/9/1
f 5/9/1 4/10/1 3/7/1
f 3/7/1 1/5/1 2/4/1
f 1/5/1 9/11/1 23/12/1
f 22/13/1 23/12/1 26/14/1
f 9/11/1 14/15/1 12/16/1
f 14/15/1 13/17/1 12/16/1
f 12/16/1 11/18/1 9/11/1
f 11/18/1 10/19/1 9/11/1
f 10/19/1 8/20/1 9/11/1
f 8/20/1 23/12/1 9/11/1
f 23/12/1 28/21/1 27/22/1
f 27/22/1 26/14/1 23/12/1
f 26/14/1 25/23/1 22/13/1
f 25/23/1 24/24/1 22/13/1
f 22/13/1 15/1/1 1/5/1
f 15/1/1 17/25/1 18/2/1
f 18/2/1 19/26/1 16/3/1
f 19/26/1 20/27/1 16/3/1
f 20/27/1 21/28/1 16/3/1
f 7/6/1 5/9/1 3/7/1
f 23/12/1 22/13/1 1/5/1
f 16/3/1 1/5/1 15/1/1
