# Blender v2.79 (sub 0) OBJ File: 'vehicle new.blend'
# www.blender.org
o Lower_Base
v 2.459669 -0.434120 -0.469645
v 2.909948 -0.434120 -0.469645
v 2.459669 -0.434120 0.463930
v 2.909948 -0.434120 0.463930
v -0.579438 -0.434164 0.464107
v -0.129158 -0.434164 0.464107
v -0.579438 -0.434164 -0.469697
v -0.129158 -0.434164 -0.469697
v -1.000000 -0.739543 0.863204
v -1.000000 -0.739543 -0.868512
v 3.300023 -0.739543 -0.868512
v 3.300022 -0.739543 0.863205
v 3.300022 -0.379411 0.863205
v -1.000000 -0.379411 0.863204
v -1.000000 -0.379411 -0.868512
v 3.300023 -0.379411 -0.868511
v 1.209048 -0.502830 0.315779
v 1.209049 -0.502830 -0.380889
v 1.587423 -0.502830 -0.380889
v 1.587422 -0.502830 0.315779
v 1.587422 -0.449622 0.315779
v 1.209048 -0.449622 0.315779
v 1.209049 -0.449622 -0.380889
v 1.587423 -0.449622 -0.380889
v -0.579438 -0.434164 -0.868512
v -0.129158 -0.434164 -0.868512
v -0.768804 -0.739543 -0.868512
v -0.768804 -0.739543 -0.469697
v 0.060208 -0.739543 -0.469697
v 0.060208 -0.739543 -0.868512
v -0.768804 -0.739543 0.464107
v -0.579438 -0.434164 0.863204
v -0.129158 -0.434164 0.863204
v -0.768804 -0.739543 0.863204
v 0.060208 -0.739543 0.464107
v 0.060208 -0.739543 0.863204
v 2.909948 -0.434120 0.863205
v 2.459669 -0.434120 0.863205
v 2.270275 -0.739543 0.463930
v 2.270275 -0.739543 0.863205
v 3.099342 -0.739543 0.863205
v 3.099341 -0.739543 0.463930
v 2.270275 -0.739543 -0.469645
v 2.909948 -0.434120 -0.868511
v 2.459669 -0.434120 -0.868511
v 2.270275 -0.739543 -0.868512
v 3.099341 -0.739543 -0.469645
v 3.099341 -0.739543 -0.868512
v 2.459669 -0.434120 -0.469645
v 2.459669 -0.434120 0.463930
v 2.909948 -0.434120 0.463930
v 1.209048 -0.502830 0.315779
v 1.209049 -0.502830 -0.380889
v 1.209048 -0.449622 0.315779
v 1.209049 -0.449622 -0.380889
v 2.459669 -0.434120 0.863205
v 2.270275 -0.739543 0.463930
v 3.099341 -0.739543 0.463930
v 2.459669 -0.434120 -0.868511
vt 0.930786 0.700007
vt 0.850287 0.790789
vt 0.930786 0.790789
vt 0.867980 0.867980
vt 0.948443 0.958762
vt 0.948443 0.867980
vt 0.268984 0.826826
vt 0.080764 0.659676
vt 0.080764 0.826826
vt 0.711046 0.175920
vt 0.711046 0.085138
vt 0.700007 0.000347
vt 0.000347 0.867980
vt 0.691713 0.879019
vt 0.169773 0.879010
vt 0.773308 0.350177
vt 0.845915 0.699313
vt 0.845915 0.350177
vt 0.699313 0.867286
vt 0.350177 0.000347
vt 0.350177 0.867286
vt 0.773308 0.840464
vt 0.849593 0.700007
vt 0.849593 0.840464
vt 0.217783 0.952008
vt 0.141498 0.941281
vt 0.217783 0.941281
vt 0.773308 0.841158
vt 0.849593 0.851885
vt 0.849593 0.841158
vt 0.910268 0.249413
vt 0.910268 0.287597
vt 0.910268 0.249413
vt 0.913765 0.867286
vt 0.773308 0.856559
vt 0.913765 0.856559
vt 0.773308 0.840464
vt 0.849593 0.700007
vt 0.849593 0.840464
vt 0.989286 0.187151
vt 0.908880 0.248719
vt 0.989286 0.248719
vt 0.908880 0.124889
vt 0.989286 0.186457
vt 0.908880 0.186457
vt 0.908177 0.632829
vt 0.846609 0.503868
vt 0.846609 0.671008
vt 0.989277 0.507928
vt 0.908871 0.417146
vt 0.908871 0.507928
vt 0.908871 0.570893
vt 0.989334 0.632461
vt 0.989334 0.570893
vt 0.908177 0.374214
vt 0.846609 0.503175
vt 0.846609 0.336035
vt 0.908871 0.633155
vt 0.989334 0.694723
vt 0.908871 0.694723
vt 0.773308 0.349483
vt 0.845915 0.000347
vt 0.845915 0.349483
vt 0.989370 0.508622
vt 0.908871 0.570199
vt 0.989370 0.570199
vt 0.773308 0.700007
vt 0.773308 0.840464
vt 0.773308 0.700007
vt 0.850287 0.791483
vt 0.930786 0.853060
vt 0.850287 0.853060
vt 0.989297 0.124195
vt 0.908880 0.062618
vt 0.908880 0.124195
vt 0.908880 0.000347
vt 0.989297 0.061924
vt 0.908880 0.061924
vt 0.908186 0.129313
vt 0.846609 0.000347
vt 0.846609 0.167497
vt 0.908871 0.416452
vt 0.999653 0.336035
vt 0.908871 0.336035
vt 0.140804 0.941281
vt 0.000347 0.952008
vt 0.000347 0.941281
vt 0.846609 0.168191
vt 0.908186 0.297157
vt 0.846609 0.335341
vt 0.908880 0.249413
vt 0.908880 0.329912
vt 0.908880 0.249413
vt 0.909574 0.329830
vt 0.909574 0.249413
vt 0.909574 0.329830
vt 0.930786 0.790789
vt 0.930786 0.700007
vt 0.773308 0.700007
vt 0.773308 0.700007
vt 0.931480 0.867157
vt 0.931480 0.700007
vt 0.931480 0.867157
vt 0.773308 0.840464
vt 0.931480 0.828973
vt 0.931480 0.828973
vt 0.850287 0.700007
vt 0.867980 0.958762
vt 0.000347 0.826826
vt 0.000347 0.867286
vt 0.349483 0.867286
vt 0.349483 0.826826
vt 0.268984 0.659676
vt 0.349483 0.659676
vt 0.269020 0.214098
vt 0.349483 0.214098
vt 0.269020 0.046959
vt 0.349483 0.046959
vt 0.349483 0.000347
vt 0.080753 0.214098
vt 0.000347 0.000347
vt 0.000347 0.046959
vt 0.080753 0.046959
vt 0.000347 0.214098
vt 0.000347 0.659676
vt 0.700007 0.867286
vt 0.772614 0.867286
vt 0.772614 0.826826
vt 0.711037 0.788642
vt 0.772614 0.046959
vt 0.772614 0.000347
vt 0.711037 0.697860
vt 0.772614 0.659676
vt 0.772614 0.214098
vt 0.040807 0.940587
vt 0.000347 0.940587
vt 0.867286 0.867980
vt 0.867286 0.940587
vt 0.820674 0.940587
vt 0.782495 0.879019
vt 0.078991 0.879010
vt 0.653535 0.940587
vt 0.207957 0.940587
vt 0.773308 0.699313
vt 0.699313 0.000347
vt 0.141498 0.952008
vt 0.773308 0.851885
vt 0.910268 0.287597
vt 0.773308 0.867286
vt 0.908880 0.187151
vt 0.989286 0.124889
vt 0.908177 0.542047
vt 0.989277 0.417146
vt 0.908871 0.632461
vt 0.908177 0.464996
vt 0.989334 0.633155
vt 0.773308 0.000347
vt 0.908871 0.508622
vt 0.930786 0.791483
vt 0.989297 0.062618
vt 0.989297 0.000347
vt 0.908186 0.038531
vt 0.999653 0.416452
vt 0.140804 0.952008
vt 0.908186 0.206375
vt 0.908880 0.329912
vt 0.909574 0.249413
vt 0.931480 0.700007
vn 0.0000 -1.0000 -0.0000
vn 0.0000 0.0000 -1.0000
vn -0.0000 0.0000 1.0000
vn -1.0000 -0.0000 -0.0000
vn 0.0000 1.0000 0.0000
vn 1.0000 0.0000 0.0000
vn -0.8499 -0.5270 -0.0000
vn 0.8499 -0.5270 -0.0000
s off
f 4/1/1 38/2/1 3/3/1
f 33/4/1 5/5/1 6/6/1
f 42/7/1 43/8/1 47/9/1
f 26/10/2 25/11/2 15/12/2
f 13/13/3 33/14/3 38/15/3
f 14/16/4 10/17/4 9/18/4
f 13/19/1 15/20/1 16/21/1
f 18/22/5 20/23/5 19/24/5
f 24/25/3 18/26/3 19/27/3
f 17/28/2 21/29/2 20/30/2
f 42/31/3 51/32/3 58/33/3
f 20/34/6 24/35/6 21/36/6
f 23/37/5 21/38/5 24/39/5
f 8/40/7 30/41/7 29/42/7
f 25/43/8 28/44/8 27/45/8
f 7/46/2 29/47/2 28/48/2
f 8/49/1 25/50/1 26/51/1
f 6/52/7 36/53/7 33/54/7
f 6/55/3 31/56/3 35/57/3
f 5/58/8 34/59/8 31/60/8
f 12/61/6 16/62/6 13/63/6
f 37/64/7 42/65/7 41/66/7
f 17/67/3 53/68/3 52/69/3
f 3/70/8 40/71/8 39/72/8
f 47/73/7 44/74/7 48/75/7
f 45/76/8 43/77/8 46/78/8
f 1/79/2 47/80/2 43/81/2
f 2/82/1 45/83/1 44/84/1
f 53/85/6 54/86/6 52/87/6
f 58/88/3 50/89/3 57/90/3
f 38/91/3 50/92/3 56/93/3
f 45/94/3 49/95/3 59/96/3
f 4/1/3 50/97/3 51/98/3
f 22/99/3 52/69/3 54/100/3
f 39/101/3 58/102/3 57/103/3
f 18/22/3 55/104/3 53/68/3
f 3/105/3 57/103/3 50/106/3
f 23/37/3 54/100/3 55/104/3
f 4/1/1 37/107/1 38/2/1
f 33/4/1 32/108/1 5/5/1
f 48/109/1 11/110/1 47/9/1
f 11/110/1 12/111/1 42/7/1
f 47/9/1 11/110/1 42/7/1
f 12/111/1 41/112/1 42/7/1
f 39/113/1 40/114/1 35/115/1
f 40/114/1 36/116/1 35/115/1
f 31/117/1 34/118/1 9/119/1
f 39/113/1 35/115/1 29/120/1
f 35/115/1 31/117/1 29/120/1
f 31/117/1 9/119/1 10/121/1
f 10/121/1 27/122/1 28/123/1
f 29/120/1 30/124/1 46/125/1
f 31/117/1 10/121/1 28/123/1
f 29/120/1 46/125/1 43/8/1
f 31/117/1 28/123/1 29/120/1
f 39/113/1 29/120/1 43/8/1
f 42/7/1 39/113/1 43/8/1
f 16/126/2 11/127/2 48/128/2
f 16/126/2 48/128/2 44/129/2
f 27/130/2 10/131/2 15/12/2
f 25/11/2 27/130/2 15/12/2
f 15/12/2 16/126/2 26/10/2
f 16/126/2 44/129/2 45/132/2
f 45/132/2 46/133/2 26/10/2
f 46/133/2 30/134/2 26/10/2
f 16/126/2 45/132/2 26/10/2
f 41/135/3 12/136/3 13/13/3
f 14/137/3 9/138/3 34/139/3
f 14/137/3 34/139/3 32/140/3
f 37/141/3 41/135/3 13/13/3
f 36/142/3 40/143/3 33/14/3
f 40/143/3 38/15/3 33/14/3
f 38/15/3 37/141/3 13/13/3
f 13/13/3 14/137/3 33/14/3
f 14/137/3 32/140/3 33/14/3
f 14/16/4 15/144/4 10/17/4
f 13/19/1 14/145/1 15/20/1
f 18/22/5 17/67/5 20/23/5
f 24/25/3 23/146/3 18/26/3
f 17/28/2 22/147/2 21/29/2
f 42/31/3 4/148/3 51/32/3
f 20/34/6 19/149/6 24/35/6
f 23/37/5 22/99/5 21/38/5
f 8/40/7 26/150/7 30/41/7
f 25/43/8 7/151/8 28/44/8
f 7/46/2 8/152/2 29/47/2
f 8/49/1 7/153/1 25/50/1
f 6/52/7 35/154/7 36/53/7
f 6/55/3 5/155/3 31/56/3
f 5/58/8 32/156/8 34/59/8
f 12/61/6 11/157/6 16/62/6
f 37/64/7 4/158/7 42/65/7
f 17/67/3 18/22/3 53/68/3
f 3/70/8 38/159/8 40/71/8
f 47/73/7 2/160/7 44/74/7
f 45/76/8 1/161/8 43/77/8
f 1/79/2 2/162/2 47/80/2
f 2/82/1 1/163/1 45/83/1
f 53/85/6 55/164/6 54/86/6
f 58/88/3 51/165/3 50/89/3
f 38/91/3 3/166/3 50/92/3
f 45/94/3 1/167/3 49/95/3
f 4/1/3 3/3/3 50/97/3
f 22/99/3 17/67/3 52/69/3
f 39/101/3 42/168/3 58/102/3
f 18/22/3 23/37/3 55/104/3
f 3/105/3 39/101/3 57/103/3
f 23/37/3 22/99/3 54/100/3
