# Blender v2.79 (sub 0) OBJ File: 'vehicle new.blend'
# www.blender.org
o Middle_Window_2
v -0.803733 0.106725 -0.791359
v -0.853733 0.156714 -0.790308
v -0.816674 0.108428 -0.791323
v -0.828733 0.113422 -0.791218
v -0.839088 0.121366 -0.791051
v -0.847034 0.131719 -0.790833
v -0.852029 0.143776 -0.790580
v -0.194092 0.156714 -0.790308
v -0.244092 0.106725 -0.791359
v -0.195796 0.143776 -0.790580
v -0.200791 0.131719 -0.790833
v -0.208737 0.121366 -0.791051
v -0.219092 0.113422 -0.791218
v -0.231151 0.108428 -0.791323
v -0.803733 0.586690 -0.781271
v -0.853733 0.536701 -0.782322
v -0.816674 0.584987 -0.781307
v -0.828733 0.579993 -0.781412
v -0.839088 0.572048 -0.781579
v -0.847034 0.561695 -0.781796
v -0.852029 0.549639 -0.782050
v -0.244092 0.586690 -0.781271
v -0.194092 0.536701 -0.782322
v -0.231151 0.584987 -0.781307
v -0.219092 0.579993 -0.781412
v -0.208737 0.572048 -0.781579
v -0.200791 0.561695 -0.781796
v -0.195796 0.549639 -0.782050
vt 0.075871 0.727738
vt 0.037978 0.717585
vt 0.000085 0.651952
vt 0.000085 0.075871
vt 0.075871 0.000085
vt 0.002668 0.056256
vt 0.056256 0.002667
vt 0.010238 0.037978
vt 0.022282 0.022282
vt 0.037978 0.010238
vt 0.924129 0.000086
vt 0.943743 0.002667
vt 0.962022 0.010238
vt 0.977718 0.022282
vt 0.989761 0.037978
vt 0.997332 0.056256
vt 0.999915 0.075871
vt 0.999915 0.651952
vt 0.924129 0.727738
vt 0.997332 0.671567
vt 0.989761 0.689845
vt 0.977718 0.705541
vt 0.962022 0.717585
vt 0.943744 0.725155
vt 0.056256 0.725155
vt 0.022282 0.705541
vt 0.010238 0.689845
vt 0.002668 0.671567
vn 0.0000 -0.0210 0.9998
s off
f 15/1/1 18/2/1 16/3/1
f 16/3/1 2/4/1 1/5/1
f 2/4/1 7/6/1 3/7/1
f 7/6/1 6/8/1 5/9/1
f 5/9/1 4/10/1 3/7/1
f 3/7/1 1/5/1 2/4/1
f 1/5/1 9/11/1 15/1/1
f 16/3/1 1/5/1 15/1/1
f 9/11/1 14/12/1 13/13/1
f 13/13/1 12/14/1 9/11/1
f 12/14/1 11/15/1 9/11/1
f 11/15/1 10/16/1 8/17/1
f 8/17/1 23/18/1 22/19/1
f 23/18/1 28/20/1 22/19/1
f 28/20/1 27/21/1 26/22/1
f 26/22/1 25/23/1 28/20/1
f 25/23/1 24/24/1 28/20/1
f 24/24/1 22/19/1 28/20/1
f 22/19/1 15/1/1 9/11/1
f 15/1/1 17/25/1 18/2/1
f 18/2/1 19/26/1 16/3/1
f 19/26/1 20/27/1 16/3/1
f 20/27/1 21/28/1 16/3/1
f 7/6/1 5/9/1 3/7/1
f 11/15/1 8/17/1 9/11/1
f 9/11/1 8/17/1 22/19/1
