# Blender v2.79 (sub 0) OBJ File: 'vehicle new.blend'
# www.blender.org
o Middle_Window_4
v 0.174765 0.104426 0.850832
v 0.124765 0.154365 0.848350
v 0.161824 0.106128 0.850748
v 0.149765 0.111117 0.850500
v 0.139410 0.119053 0.850105
v 0.131464 0.129395 0.849591
v 0.126469 0.141440 0.848992
v 0.784406 0.154365 0.848350
v 0.734406 0.104426 0.850832
v 0.782702 0.141440 0.848992
v 0.777707 0.129395 0.849591
v 0.769761 0.119053 0.850105
v 0.759406 0.111117 0.850500
v 0.747347 0.106128 0.850748
v 0.174765 0.583905 0.827000
v 0.124765 0.533967 0.829482
v 0.161824 0.582204 0.827085
v 0.149765 0.577215 0.827333
v 0.139410 0.569279 0.827727
v 0.131464 0.558936 0.828241
v 0.126469 0.546892 0.828840
v 0.734406 0.583905 0.827000
v 0.784406 0.533967 0.829482
v 0.747347 0.582204 0.827085
v 0.759406 0.577215 0.827333
v 0.769761 0.569279 0.827727
v 0.777707 0.558936 0.828241
v 0.782702 0.546892 0.828840
vt 0.075871 0.727738
vt 0.037978 0.717585
vt 0.000085 0.651952
vt 0.000085 0.075871
vt 0.075871 0.000085
vt 0.002668 0.056256
vt 0.056256 0.002668
vt 0.010239 0.037978
vt 0.022282 0.022282
vt 0.037978 0.010239
vt 0.924129 0.000086
vt 0.943744 0.002668
vt 0.962022 0.010239
vt 0.977718 0.022282
vt 0.989761 0.037978
vt 0.997333 0.056256
vt 0.999915 0.075871
vt 0.999915 0.651952
vt 0.924129 0.727738
vt 0.997333 0.671567
vt 0.989761 0.689845
vt 0.977718 0.705541
vt 0.962022 0.717585
vt 0.943744 0.725156
vt 0.056256 0.725156
vt 0.022282 0.705541
vt 0.010239 0.689845
vt 0.002668 0.671567
vn -0.0000 0.0496 0.9988
vn 0.0000 0.0497 0.9988
vn -0.0001 0.0496 0.9988
s off
f 15/1/1 18/2/1 16/3/1
f 16/3/1 2/4/1 1/5/1
f 2/4/1 7/6/1 3/7/1
f 7/6/1 6/8/1 5/9/1
f 5/9/1 4/10/1 3/7/1
f 3/7/1 1/5/1 2/4/1
f 1/5/1 9/11/1 15/1/1
f 16/3/1 1/5/1 15/1/1
f 9/11/2 14/12/2 13/13/2
f 13/13/1 12/14/1 9/11/1
f 12/14/1 11/15/1 9/11/1
f 11/15/1 10/16/1 8/17/1
f 8/17/1 23/18/1 22/19/1
f 23/18/1 28/20/1 22/19/1
f 28/20/3 27/21/3 26/22/3
f 26/22/1 25/23/1 28/20/1
f 25/23/1 24/24/1 28/20/1
f 24/24/1 22/19/1 28/20/1
f 22/19/1 15/1/1 9/11/1
f 15/1/1 17/25/1 18/2/1
f 18/2/1 19/26/1 16/3/1
f 19/26/1 20/27/1 16/3/1
f 20/27/1 21/28/1 16/3/1
f 7/6/1 5/9/1 3/7/1
f 11/15/1 8/17/1 9/11/1
f 9/11/1 8/17/1 22/19/1
