# Blender v2.79 (sub 0) OBJ File: 'vehicle new.blend'
# www.blender.org
o Middle_Window_3
v 0.174758 0.103252 0.785914
v 0.124758 0.153235 0.784603
v 0.161817 0.104955 0.785869
v 0.149758 0.109949 0.785738
v 0.139402 0.117892 0.785530
v 0.131456 0.128244 0.785258
v 0.126461 0.140299 0.784942
v 0.784398 0.153235 0.784603
v 0.734398 0.103252 0.785914
v 0.782695 0.140299 0.784942
v 0.777700 0.128244 0.785258
v 0.769754 0.117892 0.785530
v 0.759398 0.109949 0.785738
v 0.747339 0.104955 0.785869
v 0.174758 0.583159 0.773332
v 0.124758 0.533176 0.774643
v 0.161817 0.581456 0.773377
v 0.149758 0.576462 0.773508
v 0.139402 0.568519 0.773716
v 0.131456 0.558167 0.773987
v 0.126461 0.546112 0.774304
v 0.734398 0.583159 0.773332
v 0.784398 0.533176 0.774643
v 0.747339 0.581456 0.773377
v 0.759398 0.576462 0.773508
v 0.769754 0.568519 0.773716
v 0.777700 0.558167 0.773987
v 0.782695 0.546112 0.774304
vt 0.000085 0.075871
vt 0.010239 0.037978
vt 0.075871 0.000085
vt 0.651952 0.000085
vt 0.727738 0.075871
vt 0.671567 0.002668
vt 0.725155 0.056256
vt 0.689845 0.010239
vt 0.705541 0.022282
vt 0.717584 0.037978
vt 0.727738 0.924128
vt 0.725155 0.943743
vt 0.717584 0.962022
vt 0.705541 0.977717
vt 0.689845 0.989761
vt 0.671567 0.997332
vt 0.651952 0.999915
vt 0.075871 0.999915
vt 0.000085 0.924129
vt 0.056256 0.997332
vt 0.037978 0.989761
vt 0.022282 0.977717
vt 0.010239 0.962022
vt 0.002668 0.943743
vt 0.002668 0.056256
vt 0.022282 0.022282
vt 0.037978 0.010239
vt 0.056256 0.002668
vn 0.0000 0.0262 0.9997
vn -0.0001 0.0262 0.9997
s off
f 15/1/1 18/2/1 16/3/1
f 16/3/1 2/4/1 1/5/1
f 2/4/1 7/6/1 3/7/1
f 7/6/2 6/8/2 5/9/2
f 5/9/1 4/10/1 3/7/1
f 3/7/1 1/5/1 2/4/1
f 1/5/1 9/11/1 15/1/1
f 16/3/1 1/5/1 15/1/1
f 9/11/1 14/12/1 13/13/1
f 13/13/1 12/14/1 9/11/1
f 12/14/1 11/15/1 9/11/1
f 11/15/1 10/16/1 8/17/1
f 8/17/1 23/18/1 22/19/1
f 23/18/1 28/20/1 22/19/1
f 28/20/1 27/21/1 26/22/1
f 26/22/1 25/23/1 28/20/1
f 25/23/1 24/24/1 28/20/1
f 24/24/1 22/19/1 28/20/1
f 22/19/1 15/1/1 9/11/1
f 15/1/1 17/25/1 18/2/1
f 18/2/1 19/26/1 16/3/1
f 19/26/1 20/27/1 16/3/1
f 20/27/1 21/28/1 16/3/1
f 7/6/1 5/9/1 3/7/1
f 11/15/1 8/17/1 9/11/1
f 9/11/1 8/17/1 22/19/1
