# Blender v2.79 (sub 0) OBJ File: 'vehicle new.blend'
# www.blender.org
o Back_Window_2
v -0.921127 0.914579 0.379920
v -0.917659 0.964459 0.429920
v -0.921009 0.916279 0.392861
v -0.920663 0.921262 0.404920
v -0.920111 0.929189 0.415275
v -0.919393 0.939519 0.423221
v -0.918557 0.951549 0.428216
v -0.917659 0.964459 -0.429769
v -0.921127 0.914579 -0.379727
v -0.918557 0.951549 -0.428054
v -0.919393 0.939519 -0.423049
v -0.920111 0.929189 -0.415095
v -0.920663 0.921262 -0.404733
v -0.921009 0.916279 -0.392669
v -0.889230 1.373363 0.379920
v -0.892698 1.323483 0.429920
v -0.889348 1.371663 0.392861
v -0.889695 1.366680 0.404920
v -0.890246 1.358753 0.415275
v -0.890964 1.348423 0.423221
v -0.891800 1.336393 0.428216
v -0.889230 1.373363 -0.380112
v -0.892698 1.323483 -0.430070
v -0.889348 1.371663 -0.393052
v -0.889695 1.366680 -0.405107
v -0.890246 1.358753 -0.415455
v -0.890964 1.348423 -0.423393
v -0.891800 1.336393 -0.428377
vt 0.939847 0.025525
vt 0.085511 0.542739
vt 0.070995 0.000074
vt 0.000074 0.467215
vt 0.012131 0.055586
vt 0.014514 0.040842
vt 0.020631 0.027217
vt 0.030066 0.015639
vt 0.042176 0.006898
vt 0.056136 0.001589
vt 0.953780 0.027167
vt 0.966816 0.032359
vt 0.978067 0.040746
vt 0.986767 0.051758
vt 0.992321 0.064644
vt 0.994352 0.078526
vt 0.999926 0.465268
vt 0.940280 0.542740
vt 0.995710 0.498282
vt 0.988955 0.514624
vt 0.954832 0.540824
vt 0.980028 0.526270
vt 0.968390 0.535206
vt 0.057284 0.538777
vt 0.036572 0.529842
vt 0.021183 0.517567
vt 0.010292 0.502704
vt 0.003398 0.485774
vn 0.9976 -0.0694 0.0000
vn 0.9976 -0.0693 0.0000
s off
f 9/1/1 15/2/1 1/3/1
f 16/4/1 2/5/1 1/3/1
f 7/6/1 6/7/1 5/8/1
f 5/8/1 4/9/1 3/10/1
f 3/10/1 1/3/1 2/5/1
f 9/1/2 14/11/2 13/12/2
f 13/12/1 12/13/1 9/1/1
f 11/14/1 10/15/1 8/16/1
f 8/16/1 23/17/1 22/18/1
f 28/19/1 27/20/1 24/21/1
f 26/22/1 25/23/1 24/21/1
f 24/21/1 22/18/1 28/19/1
f 15/2/2 17/24/2 18/25/2
f 18/25/1 19/26/1 16/4/1
f 20/27/2 21/28/2 16/4/2
f 2/5/2 7/6/2 3/10/2
f 5/8/1 3/10/1 7/6/1
f 9/1/2 12/13/2 11/14/2
f 11/14/1 8/16/1 9/1/1
f 27/20/2 26/22/2 24/21/2
f 22/18/1 15/2/1 9/1/1
f 19/26/1 20/27/1 16/4/1
f 16/4/1 1/3/1 15/2/1
f 9/1/1 8/16/1 22/18/1
f 28/19/1 22/18/1 23/17/1
f 18/25/1 16/4/1 15/2/1
